<?xml version="1.0" encoding="UTF-8" standalone="no"?>
<!-- Created with Inkscape (http://www.inkscape.org/) -->

<svg
   width="87.765717mm"
   height="90.359215mm"
   viewBox="0 0 87.765717 90.359215"
   version="1.1"
   id="svg1"
   xml:space="preserve"
   xmlns="http://www.w3.org/2000/svg"
   xmlns:svg="http://www.w3.org/2000/svg"><defs
     id="defs1" /><g
     id="layer1"
     transform="translate(-69.781435,-139.33422)"><path
       style="fill:#00ff00;stroke:none"
       d="m 91.883225,223.575 c 0,-10.22752 -2.573618,-24.64759 3.449935,-33.54597 8.18171,-12.08655 30.99283,-11.08123 37.77818,1.90221 4.60784,8.81686 2.33459,21.98283 2.33459,31.64376 16.49348,-4.3202 16.72375,-14.87258 17.93569,-29.70184 0.47732,-5.84043 4.96739,-12.07778 4.0397,-17.82111 -1.81221,-11.21935 -32.38389,-36.71783 -43.75674,-36.71783 -11.24033,0 -41.962999,25.65004 -43.756747,36.71936 -0.930165,5.7401 3.562596,11.98176 4.039696,17.81958 1.211933,14.82925 1.442222,25.38165 17.935696,29.70184 m 9.259985,6.11844 12.52137,-9.44349 13.86086,9.26542 c 0,-9.76933 3.17033,-26.14162 -1.1948,-35.01273 -3.39867,-6.90698 -21.93346,-6.90699 -25.33213,0 -4.365139,8.87113 0.1447,25.42147 0.1447,35.1908 z"
       id="path3" /></g></svg>
